<svg width="18" height="16" viewBox="0 0 18 16" fill="none" xmlns="http://www.w3.org/2000/svg">
<path fill-rule="evenodd" clip-rule="evenodd" d="M0.212891 1.73094C0.212891 1.39696 0.345562 1.07667 0.581719 0.840508C0.817876 0.604351 1.13817 0.47168 1.47215 0.47168H16.5833C16.9172 0.47168 17.2375 0.604351 17.4737 0.840508C17.7098 1.07667 17.8425 1.39696 17.8425 1.73094C17.8425 2.06492 17.7098 2.38521 17.4737 2.62137C17.2375 2.85753 16.9172 2.9902 16.5833 2.9902H1.47215C1.13817 2.9902 0.817876 2.85753 0.581719 2.62137C0.345562 2.38521 0.212891 2.06492 0.212891 1.73094ZM0.212891 8.02723C0.212891 7.69326 0.345562 7.37296 0.581719 7.1368C0.817876 6.90065 1.13817 6.76798 1.47215 6.76798H16.5833C16.9172 6.76798 17.2375 6.90065 17.4737 7.1368C17.7098 7.37296 17.8425 7.69326 17.8425 8.02723C17.8425 8.36121 17.7098 8.68151 17.4737 8.91766C17.2375 9.15382 16.9172 9.28649 16.5833 9.28649H1.47215C1.13817 9.28649 0.817876 9.15382 0.581719 8.91766C0.345562 8.68151 0.212891 8.36121 0.212891 8.02723ZM0.212891 14.3235C0.212891 13.9896 0.345562 13.6693 0.581719 13.4331C0.817876 13.1969 1.13817 13.0643 1.47215 13.0643H16.5833C16.9172 13.0643 17.2375 13.1969 17.4737 13.4331C17.7098 13.6693 17.8425 13.9896 17.8425 14.3235C17.8425 14.6575 17.7098 14.9778 17.4737 15.214C17.2375 15.4501 16.9172 15.5828 16.5833 15.5828H1.47215C1.13817 15.5828 0.817876 15.4501 0.581719 15.214C0.345562 14.9778 0.212891 14.6575 0.212891 14.3235Z" fill="#008E8B"/>
</svg>
